<?xml version="1.0" standalone="no"?>
<!DOCTYPE svg PUBLIC "-//W3C//DTD SVG 20010904//EN"
 "http://www.w3.org/TR/2001/REC-SVG-20010904/DTD/svg10.dtd">
<svg version="1.0" xmlns="http://www.w3.org/2000/svg"
 width="260.000000pt" height="260.000000pt" viewBox="0 0 260.000000 260.000000"
 preserveAspectRatio="xMidYMid meet">
<metadata>
Created by potrace 1.11, written by Peter Selinger 2001-2013
</metadata>
<g transform="translate(0.000000,260.000000) scale(0.100000,-0.100000)"
fill="#000000" stroke="none">
<path d="M560 2197 c-20 -10 -25 -20 -25 -52 0 -54 24 -65 148 -65 l97 0 0
-760 0 -760 -97 0 c-124 0 -148 -11 -148 -65 0 -32 5 -42 25 -52 19 -10 184
-13 743 -13 l717 0 0 270 0 271 -25 24 c-29 30 -49 31 -75 5 -19 -19 -20 -33
-20 -230 l0 -210 -495 0 -495 0 0 365 0 365 230 0 230 0 0 -90 c0 -83 2 -93
25 -115 29 -30 49 -31 75 -5 19 19 20 33 20 275 0 242 -1 256 -20 275 -26 26
-46 25 -75 -5 -23 -22 -25 -32 -25 -115 l0 -90 -230 0 -230 0 0 330 0 330 459
0 460 0 3 -181 c3 -165 5 -182 22 -195 27 -19 52 -18 76 6 19 19 20 33 20 260
l0 240 -682 0 c-531 0 -689 -3 -708 -13z"/>
</g>
</svg>
